# File created by Blade
# Date/Time:  Mon Nov 15 14:44:42 2010
#---------------------------------------------------------
:version 1.10
:name HOM
:units
  mass 1.0
  length 1.000000
  angle deg
:documentation
     Acclaim Skeleton File
:root
   axis xyz
   order TX TY TZ RX RY RZ
   position 0.000000 0.000000 0.000000
   orientation 0 0 0
:bonedata
   begin
      id 1
      name LeftUpLeg_dum
      direction 1.000000 0.000000 0.000000
      length 4.719518
      axis 0.0 0.0 0.0 xyz
   end
   begin
      id 2
      name RightUpLeg_dum
      direction -1.000000 0.000000 0.000000
      length 4.719518
      axis 0.0 0.0 0.0 xyz
   end
   begin
      id 3
      name Spine_dum
      direction 0.000000 1.000000 0.000000
      length 0.039370
      axis 0.0 0.0 0.0 xyz
   end
   begin
      id 4
      name LeftUpLeg
      direction 0.000000 -1.000000 0.000000
      length 19.141694
      axis 0.0 0.0 0.0 xyz
      dof rx ry rz
   end
   begin
      id 5
      name LeftLeg
      direction 0.000000 -1.000000 0.000000
      length 19.555040
      axis 0.0 0.0 0.0 xyz
      dof rx ry rz
   end
   begin
      id 6
      name LeftFoot
      direction 0.000000 -0.258819 0.965926
      length 6.929396
      axis 15.0 0.0 0.0 xyz
      dof rx ry rz
   end
   begin
      id 7
      name LeftToeBase
      direction 0.000000 0.000000 1.000000
      length 2.952750
      axis 0.0 0.0 0.0 xyz
      dof rx ry rz
   end
   begin
      id 8
      name RightUpLeg
      direction 0.000000 -1.000000 0.000000
      length 19.141694
      axis 0.0 0.0 0.0 xyz
      dof rx ry rz
   end
   begin
      id 9
      name RightLeg
      direction 0.000000 -1.000000 0.000000
      length 19.555040
      axis 0.0 0.0 0.0 xyz
      dof rx ry rz
   end
   begin
      id 10
      name RightFoot
      direction 0.000000 -0.258819 0.965926
      length 6.929396
      axis 15.0 0.0 0.0 xyz
      dof rx ry rz
   end
   begin
      id 11
      name RightToeBase
      direction 0.000000 0.000000 1.000000
      length 2.952750
      axis 0.0 0.0 0.0 xyz
      dof rx ry rz
   end
   begin
      id 12
      name Spine
      direction 0.000000 1.000000 0.000000
      length 11.965764
      axis 0.0 0.0 0.0 xyz
      dof rx ry rz
   end
   begin
      id 13
      name Spine1
      direction 0.000000 1.000000 0.000000
      length 0.000000
      axis 0.0 0.0 0.0 xyz
      dof rx ry rz
   end
   begin
      id 14
      name Spine1_dum1
      direction 0.000000 1.000000 0.000000
      length 9.788721
      axis 0.0 0.0 0.0 xyz
   end
   begin
      id 15
      name Spine1_dum2
      direction 0.000000 1.000000 0.000000
      length 9.788721
      axis 0.0 0.0 0.0 xyz
   end
   begin
      id 16
      name Spine1_dum3
      direction 0.000000 1.000000 0.000000
      length 9.788721
      axis 0.0 0.0 0.0 xyz
   end
   begin
      id 17
      name Neck
      direction 0.000000 1.000000 0.000000
      length 7.029632
      axis 0.0 0.0 0.0 xyz
      dof rx ry rz
   end
   begin
      id 18
      name Head
      direction 0.000000 1.000000 0.000000
      length 4.527550
      axis 0.0 0.0 0.0 xyz
      dof rx ry rz
   end
   begin
      id 19
      name LeftShoulder
      direction 1.000000 -0.000004 0.000000
      length 9.320257
      axis 0.0 0.0 -90.0 xyz
      dof rx ry rz
   end
   begin
      id 20
      name LeftArm
      direction 1.000000 -0.000004 0.000000
      length 12.801352
      axis 0.0 0.0 -90.0 xyz
      dof rx ry rz
   end
   begin
      id 21
      name LeftForeArm
      direction 1.000000 -0.000004 0.000000
      length 11.278127
      axis 0.0 0.0 -90.0 xyz
      dof rx ry rz
   end
   begin
      id 22
      name LeftHand
      direction 0.000000 0.000000 0.000000
      length 0.000000
      axis 0.0 0.0 -90.0 xyz
      dof rx ry rz
   end
   begin
      id 23
      name LeftHand_dum1
      direction 0.000000 0.000000 0.000000
      length 0.000000
      axis 0.0 0.0 -90.0 xyz
   end
   begin
      id 24
      name LeftHand_dum2
      direction 1.000000 -0.000004 0.000000
      length 3.937000
      axis 0.0 0.0 -90.0 xyz
   end
   begin
      id 25
      name LeftHandThumb
      direction 0.000000 0.000000 1.000000
      length 3.937000
      axis 0.0 0.0 -90.0 xyz
      dof rx ry rz
   end
   begin
      id 26
      name RightShoulder
      direction -1.000000 -0.000004 0.000000
      length 9.320257
      axis 0.0 0.0 90.0 xyz
      dof rx ry rz
   end
   begin
      id 27
      name RightArm
      direction -1.000000 -0.000004 0.000000
      length 12.801352
      axis 0.0 0.0 90.0 xyz
      dof rx ry rz
   end
   begin
      id 28
      name RightForeArm
      direction -1.000000 -0.000004 0.000000
      length 11.278127
      axis 0.0 0.0 90.0 xyz
      dof rx ry rz
   end
   begin
      id 29
      name RightHand
      direction 0.000000 0.000000 0.000000
      length 0.000000
      axis 0.0 0.0 90.0 xyz
      dof rx ry rz
   end
   begin
      id 30
      name RightHand_dum1
      direction 0.000000 0.000000 0.000000
      length 0.000000
      axis 0.0 0.0 90.0 xyz
   end
   begin
      id 31
      name RightHand_dum2
      direction -1.000000 -0.000004 0.000000
      length 5.393690
      axis 0.0 0.0 90.0 xyz
   end
   begin
      id 32
      name RightHandThumb
      direction 0.000000 0.000000 1.000000
      length 3.937000
      axis 0.0 0.0 90.0 xyz
      dof rx ry rz
   end
:hierarchy
   begin
      root LeftUpLeg_dum RightUpLeg_dum Spine_dum
      LeftUpLeg_dum LeftUpLeg
      RightUpLeg_dum RightUpLeg
      Spine_dum Spine
      LeftUpLeg LeftLeg
      LeftLeg LeftFoot
      LeftFoot LeftToeBase
      RightUpLeg RightLeg
      RightLeg RightFoot
      RightFoot RightToeBase
      Spine Spine1
      Spine1 Spine1_dum1 Spine1_dum2 Spine1_dum3
      Spine1_dum1 Neck
      Spine1_dum2 LeftShoulder
      Spine1_dum3 RightShoulder
      Neck Head
      LeftShoulder LeftArm
      LeftArm LeftForeArm
      LeftForeArm LeftHand
      LeftHand LeftHand_dum1 LeftHand_dum2
      LeftHand_dum1 LeftHandThumb
      RightShoulder RightArm
      RightArm RightForeArm
      RightForeArm RightHand
      RightHand RightHand_dum1 RightHand_dum2
      RightHand_dum1 RightHandThumb
   end

# File created by Blade
# Date/Time:  Mon Nov 15 14:56:25 2010
# Frame Rate: 200.000 fps
#------------------------------------------------------
:FULLY-SPECIFIED
:DEGREES
672
root  4.226461 38.941809 78.700156 -14.741632 10.008929 8.124976
LeftUpLeg  26.956665 1.181501 -7.329231
LeftLeg  15.751600 -0.000000 0.000000
LeftFoot  -10.383975 1.441953 2.929586
LeftToeBase  -20.183786 0.000000 -0.000000
RightUpLeg  -8.105006 -11.212761 -11.541546
RightLeg  -9.294832 0.000000 -0.000000
RightFoot  0.372056 -13.261519 -2.559783
RightToeBase  -38.640290 0.000000 -0.000000
Spine  10.530491 -4.324097 -4.541085
Spine1  3.058123 -4.056390 -7.090346
Neck  17.006494 -4.528428 -1.218178
Head  -25.016340 -5.812732 11.352109
LeftShoulder  -5.301919 8.563634 4.839489
LeftArm  35.203070 3.977331 -69.735328
LeftForeArm  42.702645 -0.000000 0.000000
LeftHand  -5.000433 7.124781 -6.421288
LeftHandThumb  0.000000 -0.000000 0.000000
RightShoulder  -18.191719 -18.672424 7.154948
RightArm  2.772450 -17.465917 78.021706
RightForeArm  16.573777 -0.000000 0.000000
RightHand  -5.608487 1.918336 22.542305
RightHandThumb  0.000000 -0.000000 0.000000
673
root  4.169588 38.866685 79.032959 -14.810948 10.172049 8.041608
LeftUpLeg  27.116836 1.187428 -6.988057
LeftLeg  16.482446 -0.000000 0.000000
LeftFoot  -10.728008 1.197153 2.906689
LeftToeBase  -20.640814 0.000000 -0.000000
RightUpLeg  -8.303923 -11.270973 -11.429060
RightLeg  -8.692912 0.000000 -0.000000
RightFoot  -0.070092 -13.001186 -2.457562
RightToeBase  -38.686236 0.000000 -0.000000
Spine  10.479312 -4.374021 -4.463515
Spine1  3.128715 -4.073722 -7.115138
Neck  17.114603 -4.531742 -1.223683
Head  -25.103698 -5.866625 11.492388
LeftShoulder  -5.225078 8.531433 4.874153
LeftArm  35.417054 3.768423 -69.715958
LeftForeArm  43.020284 -0.000000 0.000000
LeftHand  -4.814346 6.905983 -6.229125
LeftHandThumb  0.000000 -0.000000 0.000000
RightShoulder  -18.247940 -18.810119 7.218100
RightArm  2.756878 -17.329854 78.058068
RightForeArm  16.511870 -0.000000 0.000000
RightHand  -3.724079 5.673336 20.396645
RightHandThumb  0.000000 -0.000000 0.000000
674
root  4.112698 38.791214 79.370480 -14.921188 10.263215 7.954969
LeftUpLeg  27.309520 1.148471 -6.688309
LeftLeg  17.225224 -0.000000 0.000000
LeftFoot  -10.969980 1.041062 2.821164
LeftToeBase  -21.249928 0.000000 -0.000000
RightUpLeg  -8.562186 -11.396458 -11.250000
RightLeg  -7.727990 0.000000 -0.000000
RightFoot  -0.568597 -12.677231 -2.704198
RightToeBase  -38.515529 0.000000 -0.000000
Spine  10.433083 -4.395754 -4.392875
Spine1  3.222997 -4.063424 -7.113517
Neck  17.177180 -4.550784 -1.217719
Head  -25.124794 -5.884266 11.556802
LeftShoulder  -5.193695 8.540749 4.903498
LeftArm  35.646427 3.571182 -69.745546
LeftForeArm  43.291745 -0.000000 0.000000
LeftHand  -4.641146 6.753442 -6.023227
LeftHandThumb  0.000000 -0.000000 0.000000
RightShoulder  -18.248993 -18.849182 7.208577
RightArm  2.678851 -17.231572 78.133003
RightForeArm  16.395896 -0.000000 0.000000
RightHand  -3.876236 5.449047 20.347008
RightHandThumb  0.000000 -0.000000 0.000000
675
root  4.054356 38.714362 79.710097 -15.031599 10.354217 7.868127
LeftUpLeg  27.501994 1.108508 -6.388697
LeftLeg  17.968003 -0.000000 0.000000
LeftFoot  -11.211708 0.884611 2.736302
LeftToeBase  -21.859042 0.000000 -0.000000
RightUpLeg  -8.820962 -11.521148 -11.070285
RightLeg  -6.763068 0.000000 -0.000000
RightFoot  -1.067901 -12.355381 -2.953402
RightToeBase  -38.344822 0.000000 -0.000000
Spine  10.386827 -4.417430 -4.322216
Spine1  3.317278 -4.053129 -7.111879
Neck  17.239757 -4.569833 -1.211775
Head  -25.145912 -5.901883 11.621225
LeftShoulder  -5.162307 8.550049 4.932849
LeftArm  35.875854 3.374062 -69.775919
LeftForeArm  43.563205 -0.000000 0.000000
LeftHand  -4.468553 6.600284 -5.817858
LeftHandThumb  0.000000 -0.000000 0.000000
RightShoulder  -18.250039 -18.888246 7.199052
RightArm  2.601000 -17.133193 78.207758
RightForeArm  16.279921 -0.000000 0.000000
RightHand  -4.028142 5.224627 20.297987
RightHandThumb  0.000000 -0.000000 0.000000
